<mxfile host="app.diagrams.net" modified="2024-05-19T13:28:48.849Z" agent="Mozilla/5.0 (Macintosh; Intel Mac OS X 10_15_7) AppleWebKit/537.36 (KHTML, like Gecko) Chrome/121.0.0.0 Safari/537.36" version="24.2.7" etag="VTg6iuy4oVCsC68kb3FT" type="github">
  <diagram name="Page-1" id="GBpywzXx9X7mlj_AOQqi">
    <mxGraphModel>
      <root>
        <mxCell id="0" />
        <mxCell id="1" parent="0" />
      </root>
    </mxGraphModel>
  </diagram>
</mxfile>
